<?xml version="1.0" encoding="utf-8"?>
<!-- Generator: Adobe Illustrator 29.3.1, SVG Export Plug-In . SVG Version: 9.03 Build 55982)  -->
<svg version="1.1" baseProfile="tiny" id="Layer_1" xmlns="http://www.w3.org/2000/svg" xmlns:xlink="http://www.w3.org/1999/xlink"
	 x="0px" y="0px" viewBox="0 0 1040 252" overflow="visible" xml:space="preserve">
<path fill="#F05A28" d="M126,251C57.1,251,1,194.9,1,126S57.1,1,126,1v16.3c-59.8,0-108.6,48.7-108.6,108.6
	c0,59.8,48.7,108.6,108.6,108.6V251z"/>
<path fill="#F05A28" d="M60.6,204.4c-21-17.5-33.8-42.2-36.1-69.4s6-53.7,23.5-74.6c17.5-20.9,42.2-33.8,69.4-36.1
	c27.3-2.4,53.7,6,74.6,23.5l-10.4,12.5c-17.6-14.8-39.9-21.8-62.7-19.8c-22.8,2-43.6,12.8-58.3,30.3c-14.8,17.6-21.8,39.9-19.8,62.7
	c2,22.8,12.8,43.6,30.3,58.3L60.6,204.4z"/>
<path fill="#F05A28" d="M88.6,196.4C49.9,175.9,35,127.7,55.5,88.9c20.5-38.8,68.7-53.6,107.5-33.2l-7.7,14.5
	C124.5,54,86.2,65.8,69.9,96.6c-16.2,30.8-4.4,69.1,26.4,85.3L88.6,196.4z"/>
<path fill="#F05A28" d="M126,182.8c-31.3,0-56.8-25.5-56.8-56.8S94.7,69.2,126,69.2v16.3c-22.2,0-40.5,18.1-40.5,40.5
	c0,22.3,18.1,40.5,40.5,40.5V182.8z"/>
<path d="M141.1,112.4c-1.9-2-3.8-3.6-6-4.8c-2.1-1.2-4.2-1.8-6.4-1.8c-3,0-5.6,0.6-8,1.7c-2.4,1.1-4.3,2.6-6,4.3
	c-1.7,1.9-3,3.9-3.8,6.3c-0.9,2.4-1.3,4.8-1.3,7.4c0,2.6,0.4,5,1.3,7.4c0.9,2.4,2.2,4.4,3.8,6.3s3.6,3.2,6,4.3c2.4,1.1,5,1.7,8,1.7
	c2.6,0,4.9-0.5,7.1-1.6c2.2-1.1,4-2.6,5.5-4.5l10.8,11.7c-1.6,1.7-3.5,3.1-5.6,4.2c-2.2,1.2-4.2,2.2-6.4,2.9
	c-2.2,0.7-4.2,1.3-6.2,1.6c-2,0.3-3.7,0.5-5.1,0.5c-4.9,0-9.4-0.8-13.8-2.5c-4.3-1.7-8.1-3.9-11.2-7c-3.1-3.1-5.7-6.6-7.5-10.8
	c-1.9-4.2-2.8-9-2.8-14.2c0-5.2,0.9-9.9,2.8-14.2c1.9-4.2,4.3-7.9,7.5-10.8c3.1-3.1,6.9-5.3,11.2-7c4.3-1.7,9-2.5,13.8-2.5
	c4.1,0,8.4,0.8,12.5,2.4c4.2,1.6,7.9,4.1,11,7.6L141.1,112.4z"/>
<path d="M166.8,131.2c0.5,4.9,2.5,8.8,5.7,11.5c3.2,2.8,7.2,4.1,11.8,4.1c4,0,7.5-0.9,10.2-2.6s5.1-3.8,7.3-6.4l11.6,8.9
	c-3.8,4.7-8.1,8.1-12.7,10.1c-4.7,2-9.6,3.1-14.8,3.1c-4.9,0-9.4-0.8-13.8-2.5c-4.3-1.7-8.1-3.9-11.2-7c-3.1-3.1-5.7-6.6-7.5-10.8
	c-1.9-4.2-2.8-9-2.8-14.2c0-5.2,0.9-9.9,2.8-14.2c1.9-4.2,4.3-7.9,7.5-10.8c3.1-3.1,6.9-5.3,11.2-7c4.3-1.7,9-2.5,13.8-2.5
	c4.5,0,8.7,0.8,12.4,2.4c3.7,1.6,7,3.9,9.6,6.9c2.7,3.1,4.7,6.7,6.2,11.1c1.5,4.4,2.3,9.4,2.3,15.3v4.5H166.8z M200.1,118.9
	c-0.1-4.8-1.6-8.7-4.4-11.4c-2.9-2.8-6.9-4.1-12-4.1c-4.9,0-8.8,1.4-11.6,4.2c-2.9,2.9-4.6,6.6-5.2,11.3H200.1z"/>
<path d="M223.4,92.7h16.2v10.3h0.3c1.8-3.8,4.3-6.8,7.7-8.9c3.3-2.1,7.2-3.1,11.5-3.1c1,0,2,0.1,3,0.3c1,0.2,1.9,0.4,3,0.7v15.8
	c-1.4-0.4-2.7-0.7-4-0.9c-1.3-0.2-2.6-0.3-3.8-0.3c-3.8,0-6.8,0.7-9.2,2.2c-2.3,1.4-4,3.1-5.3,4.8c-1.2,1.9-2.1,3.6-2.5,5.4
	c-0.4,1.9-0.6,3.1-0.6,4.1v35.1h-16.2V92.7z"/>
<path d="M281.2,131.2c0.5,4.9,2.5,8.8,5.7,11.5c3.2,2.8,7.2,4.1,11.8,4.1c4,0,7.5-0.9,10.2-2.6c2.8-1.7,5.1-3.8,7.3-6.4l11.6,8.9
	c-3.7,4.7-8.1,8.1-12.7,10.1c-4.7,2-9.6,3.1-14.8,3.1c-4.9,0-9.4-0.8-13.8-2.5c-4.3-1.7-8.1-3.9-11.2-7s-5.7-6.6-7.5-10.8
	c-1.9-4.2-2.8-9-2.8-14.2c0-5.2,0.9-9.9,2.8-14.2c1.9-4.2,4.3-7.9,7.5-10.8c3.1-3.1,6.9-5.3,11.2-7c4.3-1.7,9-2.5,13.8-2.5
	c4.5,0,8.7,0.8,12.4,2.4c3.7,1.6,7,3.9,9.6,6.9c2.7,3.1,4.7,6.7,6.2,11.1c1.5,4.4,2.3,9.4,2.3,15.3v4.5H281.2z M314.4,118.9
	c-0.1-4.8-1.6-8.7-4.4-11.4c-2.9-2.8-6.9-4.1-12-4.1c-4.9,0-8.8,1.4-11.6,4.2c-2.9,2.9-4.6,6.6-5.2,11.3H314.4z"/>
<path d="M335,55h16.2v46h0.4c0.8-1.1,1.9-2.2,3.1-3.3c1.3-1.2,2.8-2.2,4.6-3.2c1.8-1,3.8-1.8,6.2-2.5c2.4-0.6,5-1,8.2-1
	c4.6,0,8.9,0.9,12.7,2.7c3.8,1.8,7.2,4.2,9.9,7.3c2.8,3.1,4.9,6.7,6.4,10.9c1.6,4.2,2.3,8.7,2.3,13.5s-0.7,9.4-2.2,13.5
	c-1.5,4.2-3.5,7.9-6.4,10.9c-2.8,3.1-6.2,5.5-10.1,7.3c-3.9,1.8-8.5,2.7-13.4,2.7c-4.6,0-8.9-0.9-12.9-2.8c-3.9-1.8-7.1-4.7-9.4-8.8
	h-0.3v9.8h-15.5L335,55L335,55z M388.8,125.5c0-2.6-0.4-5-1.3-7.4c-0.9-2.4-2.2-4.4-3.8-6.3c-1.7-1.8-3.6-3.2-6-4.3
	c-2.4-1.1-5-1.7-8-1.7s-5.6,0.6-8,1.7c-2.4,1.1-4.3,2.6-6,4.3c-1.7,1.9-3,3.9-3.7,6.3c-0.9,2.4-1.3,4.8-1.3,7.4c0,2.6,0.4,5,1.3,7.4
	c0.9,2.4,2.2,4.4,3.7,6.3c1.7,1.9,3.6,3.2,6,4.3c2.4,1.1,5,1.7,8,1.7s5.6-0.6,8-1.7c2.4-1.1,4.3-2.6,6-4.3c1.7-1.8,3-3.9,3.8-6.3
	C388.4,130.5,388.8,128.1,388.8,125.5z"/>
<path d="M412.2,92.7h16.2v10.3h0.3c1.8-3.8,4.3-6.8,7.7-8.9c3.3-2.1,7.2-3.1,11.5-3.1c1,0,2,0.1,3,0.3c1,0.2,1.9,0.4,3,0.7v15.8
	c-1.4-0.4-2.7-0.7-4-0.9c-1.3-0.2-2.6-0.3-3.8-0.3c-3.8,0-6.8,0.7-9.2,2.2c-2.3,1.4-4,3.1-5.3,4.8c-1.2,1.9-2.1,3.6-2.5,5.4
	c-0.4,1.9-0.6,3.1-0.6,4.1v35.1h-16.2V92.7z"/>
<path d="M497.3,149.2h-0.4c-2.4,3.7-5.3,6.4-9,8.2c-3.6,1.7-7.6,2.6-11.9,2.6c-3,0-5.9-0.4-8.8-1.2c-2.9-0.8-5.4-2.1-7.6-3.6
	c-2.2-1.7-4-3.6-5.3-6.1c-1.4-2.5-2.1-5.3-2.1-8.6c0-3.5,0.6-6.6,1.9-9.1c1.3-2.5,3-4.6,5.1-6.3c2.2-1.7,4.6-3.1,7.4-4
	c2.8-1,5.7-1.8,8.8-2.3s6.1-0.8,9.2-1c3.1-0.1,6-0.2,8.7-0.2h4v-1.8c0-4.1-1.4-7.2-4.2-9.3c-2.8-2.1-6.4-3.1-10.7-3.1
	c-3.4,0-6.6,0.6-9.6,1.9c-3,1.2-5.5,2.9-7.7,5l-8.6-8.6c3.6-3.7,7.9-6.4,12.7-8.1c4.8-1.7,9.8-2.5,15-2.5c4.6,0,8.5,0.5,11.6,1.6
	c3.1,1.1,5.8,2.4,7.9,4c2.1,1.7,3.6,3.5,4.8,5.7c1.1,2.2,2,4.3,2.5,6.5c0.5,2.2,0.8,4.3,0.9,6.4c0.1,2.1,0.1,3.8,0.1,5.4v37.7h-14.7
	L497.3,149.2L497.3,149.2z M496.3,129H493c-2.3,0-4.8,0.1-7.6,0.3c-2.8,0.2-5.4,0.6-7.9,1.3c-2.5,0.7-4.6,1.7-6.3,3.1
	c-1.7,1.3-2.6,3.1-2.6,5.5c0,1.6,0.3,2.9,1,3.9c0.7,1.1,1.6,2,2.7,2.7c1.1,0.7,2.3,1.3,3.6,1.6c1.4,0.3,2.8,0.5,4,0.5
	c5.6,0,9.7-1.4,12.4-4c2.7-2.7,4-6.4,4-11L496.3,129L496.3,129z"/>
<path d="M555.9,110.9c-3.2-4.4-7.4-6.7-12.7-6.7c-2.2,0-4.3,0.6-6.4,1.7c-2.1,1.1-3.1,2.9-3.1,5.3c0,2,0.9,3.4,2.6,4.3
	c1.7,0.9,3.8,1.7,6.5,2.4c2.7,0.6,5.4,1.3,8.5,2c3.1,0.7,5.8,1.8,8.5,3.1c2.7,1.4,4.8,3.3,6.5,5.8c1.7,2.5,2.6,5.8,2.6,10.1
	c0,3.9-0.8,7.2-2.5,9.9c-1.7,2.7-3.8,4.8-6.5,6.5c-2.7,1.7-5.7,2.9-9,3.5c-3.3,0.7-6.7,1.1-10,1.1c-5,0-9.7-0.7-14-2.2
	c-4.2-1.5-8.1-4.1-11.4-7.9l10.8-10.2c2.1,2.4,4.3,4.3,6.7,5.8c2.4,1.5,5.3,2.3,8.8,2.3c1.2,0,2.4-0.1,3.6-0.4
	c1.3-0.3,2.5-0.7,3.5-1.4c1.1-0.6,2-1.5,2.7-2.4c0.7-1,1-2.1,1-3.3c0-2.3-0.9-3.9-2.6-5c-1.7-1.1-3.8-2-6.5-2.7
	c-2.7-0.7-5.4-1.3-8.5-1.9c-3.1-0.6-5.8-1.6-8.5-2.9c-2.7-1.3-4.8-3.1-6.5-5.5c-1.7-2.4-2.6-5.6-2.6-9.8c0-3.6,0.8-6.8,2.3-9.4
	c1.5-2.7,3.4-4.9,5.9-6.6c2.5-1.8,5.2-3.1,8.4-3.8c3.1-0.8,6.4-1.2,9.6-1.2c4.3,0,8.7,0.8,12.9,2.3c4.2,1.5,7.7,4,10.3,7.7
	L555.9,110.9z"/>
<path d="M591.4,157V91.6h9.2V157H591.4z M591.4,79.5V66.1h9.2v13.4H591.4z M608.3,157V91.6h9.1v12.7l-2.1-0.5
	c1.6-4.2,4.3-7.6,7.9-10c3.7-2.4,8.1-3.7,12.9-3.7c4.6,0,8.8,1.1,12.4,3.2c3.7,2.1,6.7,5,8.8,8.8c2.2,3.7,3.3,7.8,3.3,12.4V157h-9.1
	v-38.9c0-4-0.7-7.4-2.2-10.1c-1.4-2.8-3.4-4.9-6-6.3c-2.5-1.5-5.4-2.3-8.8-2.3c-3.3,0-6.3,0.8-8.9,2.3c-2.6,1.5-4.6,3.6-6.1,6.5
	c-1.5,2.8-2.2,6.1-2.2,10V157H608.3z M674,157v-56.2h-13.1v-9.1H674v-5.9c0-4.6,1-8.4,3-11.5c2-3.2,4.7-5.6,8.1-7.2
	c3.3-1.6,6.9-2.4,10.7-2.4c0.8,0,1.7,0.1,2.8,0.2c1.1,0.1,1.9,0.2,2.6,0.4v8.3c-0.6-0.2-1.3-0.2-2.3-0.2c-1-0.1-1.7-0.1-2.1-0.1
	c-3.9,0-7.2,0.9-9.8,2.8c-2.6,1.9-3.9,5.1-3.9,9.8v5.9h16v9.1h-16V157H674z M730.3,158.5c-6.1,0-11.6-1.5-16.6-4.4
	c-4.9-3-8.7-7.1-11.6-12.3c-2.8-5.2-4.3-11.1-4.3-17.7s1.4-12.4,4.1-17.4c2.8-5.1,6.5-9.1,11.2-12.1c4.8-2.9,10.2-4.4,16.1-4.4
	c4.7,0,8.9,0.9,12.6,2.7c3.7,1.7,6.9,4.1,9.5,7.1c2.6,2.9,4.6,6.3,6,10c1.4,3.7,2.1,7.4,2.1,11.3c0,0.8,0,1.7-0.1,2.8
	c-0.1,1-0.2,2-0.4,3.1h-55.3v-8.5h50l-4.4,3.7c0.7-4.5,0.2-8.5-1.6-12c-1.7-3.6-4.2-6.4-7.4-8.4c-3.3-2.1-6.9-3.2-11-3.2
	c-4.1,0-7.8,1.1-11.3,3.2c-3.4,2.1-6.1,5.1-8.1,8.9c-2,3.7-2.7,8.2-2.3,13.4c-0.4,5.2,0.4,9.8,2.4,13.7c2.1,3.8,5,6.8,8.5,8.9
	c3.7,2.1,7.6,3.2,11.7,3.2c4.8,0,8.8-1.1,12.1-3.4c3.3-2.3,5.9-5.1,7.9-8.5l7.8,4.1c-1.3,2.9-3.3,5.7-6,8.2c-2.7,2.4-5.9,4.4-9.6,6
	C738.8,157.7,734.8,158.5,730.3,158.5z M764.6,157V91.6h9.2v10.7l-1.2-1.6c1.5-3.1,3.9-5.5,7-7.3c3.2-1.8,7-2.7,11.5-2.7h4.1v9.2
	h-5.7c-4.7,0-8.5,1.5-11.3,4.4c-2.8,2.9-4.3,7.1-4.3,12.4V157H764.6z M824.6,158.5c-6.1,0-11.6-1.5-16.6-4.4
	c-4.9-3-8.7-7.1-11.6-12.3s-4.3-11.1-4.3-17.7s1.4-12.4,4.1-17.4c2.8-5.1,6.5-9.1,11.2-12.1c4.8-2.9,10.2-4.4,16.1-4.4
	c4.7,0,8.9,0.9,12.6,2.7c3.7,1.7,6.9,4.1,9.5,7.1c2.6,2.9,4.6,6.3,6,10c1.4,3.7,2.1,7.4,2.1,11.3c0,0.8,0,1.7-0.1,2.8
	c-0.1,1-0.2,2-0.4,3.1H798v-8.5h50l-4.4,3.7c0.7-4.5,0.2-8.5-1.6-12c-1.7-3.6-4.2-6.4-7.4-8.4c-3.3-2.1-6.9-3.2-11-3.2
	s-7.8,1.1-11.3,3.2c-3.4,2.1-6.1,5.1-8.1,8.9c-2,3.7-2.7,8.2-2.3,13.4c-0.4,5.2,0.4,9.8,2.4,13.7c2.1,3.8,5,6.8,8.5,8.9
	c3.7,2.1,7.6,3.2,11.7,3.2c4.8,0,8.8-1.1,12.1-3.4c3.3-2.3,5.9-5.1,7.9-8.5l7.8,4.1c-1.3,2.9-3.3,5.7-6,8.2c-2.7,2.4-5.9,4.4-9.6,6
	C833.1,157.7,829.1,158.5,824.6,158.5z M858.9,157V91.6h9.1v12.7l-2.1-0.5c1.6-4.2,4.3-7.6,7.9-10c3.7-2.4,8.1-3.7,12.9-3.7
	c4.6,0,8.8,1.1,12.4,3.2c3.7,2.1,6.7,5,8.8,8.8c2.2,3.7,3.3,7.8,3.3,12.4V157h-9.1v-38.9c0-4-0.7-7.4-2.2-10.1
	c-1.4-2.8-3.4-4.9-6-6.3c-2.5-1.5-5.4-2.3-8.8-2.3c-3.3,0-6.3,0.8-8.9,2.3c-2.6,1.5-4.6,3.6-6.1,6.5c-1.5,2.8-2.2,6.1-2.2,10V157
	H858.9z M947.8,158.5c-6.4,0-12.1-1.5-17-4.5s-8.7-7.1-11.5-12.2c-2.8-5.2-4.1-11.1-4.1-17.6c0-6.5,1.4-12.3,4.1-17.4
	c2.8-5.1,6.6-9.1,11.5-12.1c4.9-3,10.5-4.5,17-4.5c4.1,0,7.9,0.7,11.5,2.2c3.6,1.5,6.8,3.5,9.5,6c2.8,2.4,4.8,5.3,6.2,8.5l-8.3,4.3
	c-1.6-3.5-4.1-6.3-7.4-8.5c-3.3-2.2-7.2-3.3-11.5-3.3c-4.3,0-8.2,1.1-11.7,3.3c-3.4,2.1-6.1,5.1-8.2,8.9c-2,3.7-2.9,8-2.9,12.8
	c0,4.7,1,9,2.9,12.8c2,3.7,4.8,6.7,8.2,8.9c3.5,2.2,7.4,3.3,11.7,3.3c4.3,0,8.1-1.1,11.3-3.3c3.3-2.2,5.9-5.1,7.6-8.8l8.3,4.5
	c-1.4,3.2-3.5,6-6.2,8.5c-2.8,2.5-5.9,4.5-9.5,6C955.6,157.7,951.8,158.5,947.8,158.5z M1009.8,158.5c-6.1,0-11.6-1.5-16.6-4.4
	c-4.9-3-8.7-7.1-11.6-12.3c-2.8-5.2-4.3-11.1-4.3-17.7s1.4-12.4,4.1-17.4c2.8-5.1,6.5-9.1,11.2-12.1c4.8-2.9,10.2-4.4,16.1-4.4
	c4.7,0,8.9,0.9,12.6,2.7c3.7,1.7,6.9,4.1,9.5,7.1c2.6,2.9,4.6,6.3,6,10c1.4,3.7,2.1,7.4,2.1,11.3c0,0.8,0,1.7-0.1,2.8
	c-0.1,1-0.2,2-0.4,3.1h-55.3v-8.5h50l-4.4,3.7c0.7-4.5,0.2-8.5-1.6-12c-1.7-3.6-4.2-6.4-7.4-8.4c-3.2-2.1-6.9-3.2-11-3.2
	s-7.8,1.1-11.3,3.2c-3.4,2.1-6.1,5.1-8.1,8.9c-2,3.7-2.7,8.2-2.3,13.4c-0.4,5.2,0.4,9.8,2.4,13.7c2.1,3.8,5,6.8,8.5,8.9
	c3.7,2.1,7.6,3.2,11.7,3.2c4.8,0,8.8-1.1,12.1-3.4c3.3-2.3,5.9-5.1,7.9-8.5l7.8,4.1c-1.3,2.9-3.3,5.7-6,8.2c-2.7,2.4-5.9,4.4-9.6,6
	C1018.3,157.7,1014.3,158.5,1009.8,158.5z"/>
</svg>
